# Created with Anim8or 0.98
# Object "object04":

mtllib door_outher.mtl

# Shape "mesh01":
g mesh01
# No. points 16:
v -27.318 -17.5621 -0.31743
v 27.3179 -17.5621 -0.31743
v 27.3179 -17.5621 0.31746
v -27.318 -17.5621 0.31746
v -27.318 17.4499 -0.31743
v 27.3179 17.4499 -0.31743
v 27.3179 17.4499 0.31746
v -27.318 17.4499 0.31746
v 17.4184 -17.5621 -0.31743
v 17.5 17.4499 -0.31743
v 17.4184 -17.5621 0.31746
v 17.5 17.4499 0.31746
v -17.2787 17.4499 -0.31743
v -17.2082 -17.5621 -0.31743
v -17.2082 -17.5621 0.31746
v -17.2787 17.4499 0.31746

# No. normals 50:
vn 1 0 0
vn -1 0 0
vn 0 0 -1
vn 0 0 1
vn 0 1 0
vn 0 -1 0
vn 0 0 -1
vn 0 0 1
vn 0 1 0
vn 0 -1 0
vn -1 0 0
vn 0 -1 0
vn 0 0 -1
vn 1 0 0
vn 0 -1 0
vn 0 0 -1
vn 1 0 0
vn 0 -1 0
vn 0 0 1
vn -1 0 0
vn 0 -1 0
vn 0 0 1
vn -1 0 0
vn 0 1 0
vn 0 0 -1
vn 1 0 0
vn 0 1 0
vn 0 0 -1
vn 1 0 0
vn 0 1 0
vn 0 0 1
vn -1 0 0
vn 0 1 0
vn 0 0 1
vn 0 0 -1
vn 0 -1 0
vn 0 0 -1
vn 0 1 0
vn 0 0 1
vn 0 -1 0
vn 0 0 1
vn 0 1 0
vn 0 0 -1
vn 0 1 0
vn 0 0 -1
vn 0 -1 0
vn 0 0 1
vn 0 -1 0
vn 0 0 1
vn 0 1 0

# No. texture coordinates 28:
vt 0.99750 0
vt 0.00250 0
vt 0.00250 1
vt 0.99750 1
vt 0.00250 0
vt 0.99750 0
vt 0.99750 1
vt 0.00250 1
vt 0.18278 0
vt 0.18130 1
vt 0.18130 1
vt 0.18130 1
vt 0.18278 0
vt 0.18278 0
vt 0.81467 1
vt 0.81339 0
vt 0.81467 1
vt 0.81467 1
vt 0.81339 0
vt 0.81339 0
vt 0.81870 1
vt 0.99750 1
vt 0.99750 0
vt 0.81722 0
vt 0.18533 1
vt 0.18661 0
vt 0.00250 0
vt 0.00250 1

# No. faces 10:

usemtl door

f 6/3/26 7/8/29 3/5/17 2/2/14
f 4/6/20 8/7/32 5/4/23 1/1/11
f 10/10/37 6/3/28 2/2/16 9/9/35
f 11/24/39 3/23/19 7/22/31 12/21/41
f 12/12/42 7/8/30 6/3/27 10/11/38
f 9/14/36 2/2/15 3/5/18 11/13/40
f 14/16/45 1/1/13 5/4/25 13/15/43
f 16/25/49 8/28/34 4/27/22 15/26/47
f 13/18/44 5/4/24 8/7/33 16/17/50
f 15/20/48 4/6/21 1/1/12 14/19/46

# End of Object "object04"
