# Created with Anim8or 0.98
# Object "object03":

mtllib monitor.mtl

# Shape "mesh01":
g mesh01
# No. points 8:
v -11.448 -6.68355 -0.47618
v 10.9991 -6.68355 -0.47618
v 10.9991 -6.68355 0.47615
v -11.448 -6.68355 0.47615
v -11.448 6.7958 -0.47618
v 10.9991 6.7958 -0.47618
v 10.9991 6.7958 0.47615
v -11.448 6.7958 0.47615

# No. normals 32:
vn 0 0 -1
vn 0 0 1
vn 1 0 0
vn 0 1 0
vn -1 0 0
vn 0 -1 0
vn 0 0 -1
vn 0 -1 0
vn -1 0 0
vn 0 0 -1
vn 0 -1 0
vn 1 0 0
vn 0 0 1
vn 0 -1 0
vn 1 0 0
vn 0 0 1
vn 0 -1 0
vn -1 0 0
vn 0 0 -1
vn -1 0 0
vn 0 1 0
vn 0 0 -1
vn 0 1 0
vn 1 0 0
vn 0 0 1
vn 0 1 0
vn 1 0 0
vn 0 0 1
vn -1 0 0
vn 0 1 0
vn 0 0 -1
vn 0 0 1

# No. texture coordinates 12:
vt -0.01417 0.52342
vt 1.02456 0.52342
vt 1.02456 0.99610
vt -0.01417 0.99610
vt 1.02456 0.52342
vt -0.01417 0.52342
vt -0.01417 0.99610
vt 1.02456 0.99610
vt 0.00429 0.02043
vt 0.98589 0.02043
vt 0.98589 0.50020
vt 0.00429 0.50020

# No. faces 6:

usemtl skinmonitor

f 5/12/19 6/11/22 2/10/10 1/9/7
f 7/8/25 8/7/28 4/6/16 3/5/13
f 6/3/24 7/8/27 3/5/15 2/2/12
f 8/7/30 7/8/26 6/3/23 5/4/21
f 4/6/18 8/7/29 5/4/20 1/1/9
f 2/2/11 3/5/14 4/6/17 1/1/8

# End of Object "object03"
