# Created with Anim8or 0.98
# Object "object01":

mtllib security_ball.mtl

# Shape "mesh01":
g mesh01
# No. points 86:
v -0.22675 -0.11337 -7.21715
v 2.53514 -0.11337 -6.66778
v 4.87655 -0.11337 -5.1033
v 6.44104 -0.11337 -2.76188
v 6.99041 -0.11337 0
v 6.44104 -0.11337 2.76188
v 4.87655 -0.11337 5.1033
v 2.53514 -0.11337 6.66778
v -0.22675 -0.11337 7.21715
v 2.16512 1.26757 -6.66778
v 4.19284 2.43828 -5.1033
v 5.54772 3.22052 -2.76189
v 6.02349 3.4952 0
v 5.54772 3.22052 2.76188
v 4.19284 2.43828 5.1033
v 2.16512 1.26757 6.66778
v 1.1542 2.27849 -6.66778
v 2.3249 4.30621 -5.1033
v 3.10715 5.66109 -2.76189
v 3.38183 6.13687 0
v 3.10715 5.66109 2.76188
v 2.3249 4.30621 5.1033
v 1.1542 2.27849 6.66778
v -0.22675 2.64851 -6.66778
v -0.22675 4.98992 -5.1033
v -0.22675 6.55441 -2.76189
v -0.22675 7.10378 0
v -0.22675 6.55441 2.76188
v -0.22675 4.98993 5.1033
v -0.22675 2.64851 6.66778
v -1.60769 2.27849 -6.66778
v -2.77839 4.30621 -5.1033
v -3.56064 5.66109 -2.76189
v -3.83532 6.13687 0
v -3.56064 5.66109 2.76188
v -2.77839 4.30621 5.1033
v -1.60769 2.27849 6.66778
v -2.61861 1.26757 -6.66778
v -4.64633 2.43828 -5.1033
v -6.00121 3.22052 -2.76189
v -6.47698 3.4952 0
v -6.00121 3.22052 2.76188
v -4.64633 2.43828 5.1033
v -2.61861 1.26757 6.66778
v -2.98863 -0.11337 -6.66778
v -5.33004 -0.11337 -5.1033
v -6.89453 -0.11337 -2.76188
v -7.4439 -0.11337 0
v -6.89453 -0.11337 2.76188
v -5.33004 -0.11337 5.1033
v -2.98863 -0.11337 6.66778
v -2.61861 -1.49432 -6.66778
v -4.64633 -2.66502 -5.1033
v -6.00121 -3.44726 -2.76188
v -6.47698 -3.72195 0
v -6.00121 -3.44726 2.76189
v -4.64633 -2.66502 5.1033
v -2.61861 -1.49431 6.66778
v -1.60769 -2.50524 -6.66778
v -2.77839 -4.53296 -5.1033
v -3.56064 -5.88784 -2.76188
v -3.83532 -6.36361 0
v -3.56064 -5.88784 2.76189
v -2.77839 -4.53296 5.1033
v -1.60769 -2.50523 6.66778
v -0.22675 -2.87526 -6.66778
v -0.22675 -5.21667 -5.1033
v -0.22675 -6.78115 -2.76188
v -0.22675 -7.33053 0
v -0.22675 -6.78115 2.76189
v -0.22675 -5.21667 5.1033
v -0.22675 -2.87526 6.66778
v 1.1542 -2.50524 -6.66778
v 2.3249 -4.53296 -5.1033
v 3.10715 -5.88784 -2.76188
v 3.38183 -6.36361 0
v 3.10715 -5.88784 2.76189
v 2.3249 -4.53296 5.1033
v 1.1542 -2.50523 6.66778
v 2.16512 -1.49432 -6.66778
v 4.19284 -2.66502 -5.1033
v 5.54772 -3.44726 -2.76188
v 6.02349 -3.72195 0
v 5.54772 -3.44726 2.76189
v 4.19284 -2.66502 5.1033
v 2.16512 -1.49431 6.66778

# No. normals 182:
vn 0.19482 0.05220 -0.97945
vn 0.14262 0.14262 -0.97945
vn 0.05220 0.19482 -0.97945
vn -0.05220 0.19482 -0.97945
vn -0.14262 0.14262 -0.97945
vn -0.19482 0.05220 -0.97945
vn -0.19482 -0.05220 -0.97945
vn -0.14262 -0.14262 -0.97945
vn -0.05220 -0.19482 -0.97945
vn 0.05220 -0.19482 -0.97945
vn 0.14262 -0.14262 -0.97945
vn 0.19482 -0.05220 -0.97945
vn 0.54951 0.14724 -0.82241
vn 0.40227 0.40227 -0.82241
vn 0.14724 0.54951 -0.82241
vn -0.14724 0.54951 -0.82241
vn -0.40227 0.40227 -0.82241
vn -0.54951 0.14724 -0.82241
vn -0.54951 -0.14724 -0.82241
vn -0.40227 -0.40227 -0.82241
vn -0.14724 -0.54951 -0.82241
vn 0.14724 -0.54951 -0.82241
vn 0.40227 -0.40227 -0.82241
vn 0.54951 -0.14724 -0.82241
vn 0.81157 0.21746 -0.54228
vn 0.59411 0.59411 -0.54228
vn 0.21746 0.81157 -0.54228
vn -0.21746 0.81157 -0.54228
vn -0.59411 0.59411 -0.54228
vn -0.81157 0.21746 -0.54228
vn -0.81157 -0.21746 -0.54227
vn -0.59411 -0.59411 -0.54227
vn -0.21746 -0.81157 -0.54228
vn 0.21746 -0.81157 -0.54227
vn 0.59411 -0.59411 -0.54227
vn 0.81157 -0.21746 -0.54228
vn 0.94858 0.25417 -0.18868
vn 0.69441 0.69441 -0.18868
vn 0.25417 0.94858 -0.18868
vn -0.25417 0.94858 -0.18868
vn -0.69441 0.69441 -0.18868
vn -0.94858 0.25417 -0.18868
vn -0.94858 -0.25417 -0.18868
vn -0.69441 -0.69441 -0.18868
vn -0.25417 -0.94858 -0.18868
vn 0.25417 -0.94858 -0.18868
vn 0.69441 -0.69441 -0.18868
vn 0.94858 -0.25417 -0.18868
vn 0.94858 0.25417 0.18868
vn 0.69441 0.69441 0.18868
vn 0.25417 0.94858 0.18868
vn -0.25417 0.94858 0.18868
vn -0.69441 0.69441 0.18868
vn -0.94858 0.25417 0.18868
vn -0.94858 -0.25417 0.18868
vn -0.69441 -0.69441 0.18868
vn -0.25417 -0.94858 0.18868
vn 0.25417 -0.94858 0.18868
vn 0.69441 -0.69441 0.18868
vn 0.94858 -0.25417 0.18868
vn 0.81157 0.21746 0.54227
vn 0.59411 0.59411 0.54227
vn 0.21746 0.81157 0.54228
vn -0.21746 0.81157 0.54227
vn -0.59411 0.59411 0.54227
vn -0.81157 0.21746 0.54228
vn -0.81157 -0.21746 0.54228
vn -0.59411 -0.59411 0.54228
vn -0.21746 -0.81157 0.54228
vn 0.21746 -0.81157 0.54228
vn 0.59411 -0.59411 0.54228
vn 0.81157 -0.21746 0.54228
vn 0.54951 0.14724 0.82241
vn 0.40227 0.40227 0.82241
vn 0.14724 0.54951 0.82241
vn -0.14724 0.54951 0.82241
vn -0.40227 0.40227 0.82241
vn -0.54951 0.14724 0.82241
vn -0.54951 -0.14724 0.82241
vn -0.40227 -0.40227 0.82241
vn -0.14724 -0.54951 0.82241
vn 0.14724 -0.54951 0.82241
vn 0.40227 -0.40227 0.82241
vn 0.54951 -0.14724 0.82241
vn 0.19482 0.05220 0.97945
vn 0.14262 0.14262 0.97945
vn 0.05220 0.19482 0.97945
vn -0.05220 0.19482 0.97945
vn -0.14262 0.14262 0.97945
vn -0.19482 0.05220 0.97945
vn -0.19482 -0.05220 0.97945
vn -0.14262 -0.14262 0.97945
vn -0.05220 -0.19482 0.97945
vn 0.05220 -0.19482 0.97945
vn 0.14262 -0.14262 0.97945
vn 0.19482 -0.05220 0.97945
vn 0 0 -1
vn 0.38180 0 -0.92424
vn 0.70617 0 -0.70804
vn 0.92353 0 -0.38353
vn 1 0 0
vn 0.92353 0 0.38353
vn 0.70617 0 0.70804
vn 0.38180 0 0.92424
vn 0 0 1
vn 0.33065 0.19090 -0.92424
vn 0.61156 0.35309 -0.70804
vn 0.79980 0.46176 -0.38353
vn 0.86603 0.50000 0
vn 0.79980 0.46177 0.38353
vn 0.61156 0.35309 0.70804
vn 0.33065 0.19090 0.92424
vn 0.19090 0.33065 -0.92424
vn 0.35309 0.61156 -0.70804
vn 0.46177 0.79980 -0.38353
vn 0.50000 0.86603 0
vn 0.46177 0.79980 0.38353
vn 0.35309 0.61156 0.70804
vn 0.19090 0.33065 0.92424
vn 0 0.38180 -0.92424
vn 0 0.70617 -0.70804
vn 0 0.92353 -0.38353
vn 0 1 0
vn 0 0.92353 0.38353
vn 0 0.70617 0.70804
vn 0 0.38180 0.92424
vn -0.19090 0.33065 -0.92424
vn -0.35309 0.61156 -0.70804
vn -0.46177 0.79980 -0.38353
vn -0.50000 0.86603 0
vn -0.46177 0.79980 0.38353
vn -0.35309 0.61156 0.70804
vn -0.19090 0.33065 0.92424
vn -0.33065 0.19090 -0.92424
vn -0.61156 0.35309 -0.70804
vn -0.79980 0.46176 -0.38353
vn -0.86603 0.50000 0
vn -0.79980 0.46177 0.38353
vn -0.61156 0.35309 0.70804
vn -0.33065 0.19090 0.92424
vn -0.38180 0 -0.92424
vn -0.70617 0 -0.70804
vn -0.92353 0 -0.38353
vn -1 0 0
vn -0.92353 0 0.38353
vn -0.70617 0 0.70804
vn -0.38180 0 0.92424
vn -0.33065 -0.19090 -0.92424
vn -0.61156 -0.35309 -0.70804
vn -0.79980 -0.46177 -0.38353
vn -0.86603 -0.50000 0
vn -0.79980 -0.46176 0.38353
vn -0.61156 -0.35309 0.70804
vn -0.33065 -0.19090 0.92424
vn -0.19090 -0.33065 -0.92424
vn -0.35309 -0.61156 -0.70804
vn -0.46177 -0.79980 -0.38353
vn -0.50000 -0.86603 0
vn -0.46177 -0.79980 0.38353
vn -0.35309 -0.61156 0.70804
vn -0.19090 -0.33065 0.92424
vn 0 -0.38180 -0.92424
vn 0 -0.70617 -0.70804
vn 0 -0.92353 -0.38353
vn 0 -1 0
vn 0 -0.92353 0.38353
vn 0 -0.70617 0.70804
vn 0 -0.38180 0.92424
vn 0.19090 -0.33065 -0.92424
vn 0.35309 -0.61156 -0.70804
vn 0.46177 -0.79980 -0.38353
vn 0.50000 -0.86603 0
vn 0.46177 -0.79980 0.38353
vn 0.35309 -0.61156 0.70804
vn 0.19090 -0.33065 0.92424
vn 0.33065 -0.19090 -0.92424
vn 0.61156 -0.35309 -0.70804
vn 0.79980 -0.46177 -0.38353
vn 0.86603 -0.50000 0
vn 0.79980 -0.46176 0.38353
vn 0.61156 -0.35309 0.70804
vn 0.33065 -0.19090 0.92424

# No. texture coordinates 86:
vt 0.50000 0.50000
vt 0.65881 0.50000
vt 0.63754 0.57893
vt 0.57941 0.63671
vt 0.50000 0.65786
vt 0.42059 0.63671
vt 0.36246 0.57893
vt 0.34119 0.50000
vt 0.36246 0.42107
vt 0.42059 0.36329
vt 0.50000 0.34214
vt 0.57941 0.36329
vt 0.63754 0.42107
vt 0.79345 0.50000
vt 0.75413 0.64584
vt 0.64672 0.75260
vt 0.50000 0.79168
vt 0.35328 0.75260
vt 0.24587 0.64584
vt 0.20655 0.50000
vt 0.24587 0.35416
vt 0.35328 0.24740
vt 0.50000 0.20832
vt 0.64672 0.24740
vt 0.75413 0.35416
vt 0.88341 0.50000
vt 0.83204 0.69055
vt 0.69170 0.83004
vt 0.50000 0.88110
vt 0.30830 0.83004
vt 0.16796 0.69055
vt 0.11659 0.50000
vt 0.16796 0.30945
vt 0.30830 0.16996
vt 0.50000 0.11890
vt 0.69170 0.16996
vt 0.83204 0.30945
vt 0.91500 0.50000
vt 0.85940 0.70625
vt 0.70750 0.85724
vt 0.50000 0.91250
vt 0.29250 0.85724
vt 0.14060 0.70625
vt 0.08500 0.50000
vt 0.14060 0.29375
vt 0.29250 0.14276
vt 0.50000 0.08750
vt 0.70750 0.14276
vt 0.85940 0.29375
vt 0.88341 0.50000
vt 0.83204 0.69055
vt 0.69170 0.83004
vt 0.50000 0.88110
vt 0.30830 0.83004
vt 0.16796 0.69055
vt 0.11659 0.50000
vt 0.16796 0.30945
vt 0.30830 0.16996
vt 0.50000 0.11890
vt 0.69170 0.16996
vt 0.83204 0.30945
vt 0.79345 0.50000
vt 0.75413 0.64584
vt 0.64672 0.75260
vt 0.50000 0.79168
vt 0.35328 0.75260
vt 0.24587 0.64584
vt 0.20655 0.50000
vt 0.24587 0.35416
vt 0.35328 0.24740
vt 0.50000 0.20832
vt 0.64672 0.24740
vt 0.75413 0.35416
vt 0.65881 0.50000
vt 0.63754 0.57893
vt 0.57941 0.63671
vt 0.50000 0.65786
vt 0.42059 0.63671
vt 0.36246 0.57893
vt 0.34119 0.50000
vt 0.36246 0.42107
vt 0.42059 0.36329
vt 0.50000 0.34214
vt 0.57941 0.36329
vt 0.63754 0.42107
vt 0.50000 0.50000

# No. faces 96:

usemtl ski_security_ball

f 10/3/106 2/2/98 1/1/97
f 17/4/113 10/3/106 1/1/97
f 24/5/120 17/4/113 1/1/97
f 31/6/127 24/5/120 1/1/97
f 38/7/134 31/6/127 1/1/97
f 45/8/141 38/7/134 1/1/97
f 52/9/148 45/8/141 1/1/97
f 59/10/155 52/9/148 1/1/97
f 66/11/162 59/10/155 1/1/97
f 73/12/169 66/11/162 1/1/97
f 80/13/176 73/12/169 1/1/97
f 2/2/98 80/13/176 1/1/97
f 11/15/107 3/14/99 2/2/98 10/3/106
f 18/16/114 11/15/107 10/3/106 17/4/113
f 25/17/121 18/16/114 17/4/113 24/5/120
f 32/18/128 25/17/121 24/5/120 31/6/127
f 39/19/135 32/18/128 31/6/127 38/7/134
f 46/20/142 39/19/135 38/7/134 45/8/141
f 53/21/149 46/20/142 45/8/141 52/9/148
f 60/22/156 53/21/149 52/9/148 59/10/155
f 67/23/163 60/22/156 59/10/155 66/11/162
f 74/24/170 67/23/163 66/11/162 73/12/169
f 81/25/177 74/24/170 73/12/169 80/13/176
f 3/14/99 81/25/177 80/13/176 2/2/98
f 12/27/108 4/26/100 3/14/99 11/15/107
f 19/28/115 12/27/108 11/15/107 18/16/114
f 26/29/122 19/28/115 18/16/114 25/17/121
f 33/30/129 26/29/122 25/17/121 32/18/128
f 40/31/136 33/30/129 32/18/128 39/19/135
f 47/32/143 40/31/136 39/19/135 46/20/142
f 54/33/150 47/32/143 46/20/142 53/21/149
f 61/34/157 54/33/150 53/21/149 60/22/156
f 68/35/164 61/34/157 60/22/156 67/23/163
f 75/36/171 68/35/164 67/23/163 74/24/170
f 82/37/178 75/36/171 74/24/170 81/25/177
f 4/26/100 82/37/178 81/25/177 3/14/99
f 13/39/109 5/38/101 4/26/100 12/27/108
f 20/40/116 13/39/109 12/27/108 19/28/115
f 27/41/123 20/40/116 19/28/115 26/29/122
f 34/42/130 27/41/123 26/29/122 33/30/129
f 41/43/137 34/42/130 33/30/129 40/31/136
f 48/44/144 41/43/137 40/31/136 47/32/143
f 55/45/151 48/44/144 47/32/143 54/33/150
f 62/46/158 55/45/151 54/33/150 61/34/157
f 69/47/165 62/46/158 61/34/157 68/35/164
f 76/48/172 69/47/165 68/35/164 75/36/171
f 83/49/179 76/48/172 75/36/171 82/37/178
f 5/38/101 83/49/179 82/37/178 4/26/100
f 14/51/110 6/50/102 5/38/101 13/39/109
f 21/52/117 14/51/110 13/39/109 20/40/116
f 28/53/124 21/52/117 20/40/116 27/41/123
f 35/54/131 28/53/124 27/41/123 34/42/130
f 42/55/138 35/54/131 34/42/130 41/43/137
f 49/56/145 42/55/138 41/43/137 48/44/144
f 56/57/152 49/56/145 48/44/144 55/45/151
f 63/58/159 56/57/152 55/45/151 62/46/158
f 70/59/166 63/58/159 62/46/158 69/47/165
f 77/60/173 70/59/166 69/47/165 76/48/172
f 84/61/180 77/60/173 76/48/172 83/49/179
f 6/50/102 84/61/180 83/49/179 5/38/101
f 15/63/111 7/62/103 6/50/102 14/51/110
f 22/64/118 15/63/111 14/51/110 21/52/117
f 29/65/125 22/64/118 21/52/117 28/53/124
f 36/66/132 29/65/125 28/53/124 35/54/131
f 43/67/139 36/66/132 35/54/131 42/55/138
f 50/68/146 43/67/139 42/55/138 49/56/145
f 57/69/153 50/68/146 49/56/145 56/57/152
f 64/70/160 57/69/153 56/57/152 63/58/159
f 71/71/167 64/70/160 63/58/159 70/59/166
f 78/72/174 71/71/167 70/59/166 77/60/173
f 85/73/181 78/72/174 77/60/173 84/61/180
f 7/62/103 85/73/181 84/61/180 6/50/102
f 16/75/112 8/74/104 7/62/103 15/63/111
f 23/76/119 16/75/112 15/63/111 22/64/118
f 30/77/126 23/76/119 22/64/118 29/65/125
f 37/78/133 30/77/126 29/65/125 36/66/132
f 44/79/140 37/78/133 36/66/132 43/67/139
f 51/80/147 44/79/140 43/67/139 50/68/146
f 58/81/154 51/80/147 50/68/146 57/69/153
f 65/82/161 58/81/154 57/69/153 64/70/160
f 72/83/168 65/82/161 64/70/160 71/71/167
f 79/84/175 72/83/168 71/71/167 78/72/174
f 86/85/182 79/84/175 78/72/174 85/73/181
f 8/74/104 86/85/182 85/73/181 7/62/103
f 9/86/105 8/74/104 16/75/112
f 9/86/105 16/75/112 23/76/119
f 9/86/105 23/76/119 30/77/126
f 9/86/105 30/77/126 37/78/133
f 9/86/105 37/78/133 44/79/140
f 9/86/105 44/79/140 51/80/147
f 9/86/105 51/80/147 58/81/154
f 9/86/105 58/81/154 65/82/161
f 9/86/105 65/82/161 72/83/168
f 9/86/105 72/83/168 79/84/175
f 9/86/105 79/84/175 86/85/182
f 9/86/105 86/85/182 8/74/104

# End of Object "object01"
